<svg id="visual" viewBox="0 0 900 600" width="900" height="600" xmlns="http://www.w3.org/2000/svg" xmlns:xlink="http://www.w3.org/1999/xlink" version="1.1"><rect x="0" y="0" width="900" height="600" fill="#FF0066"></rect><g transform="translate(491.98179629869827 303.7978782570218)"><path d="M89.8 -126.3C114.4 -86.3 131.1 -56.2 147.5 -17.9C164 20.5 180.3 67 165.5 98.3C150.7 129.5 104.7 145.6 55.7 171.3C6.7 197 -45.4 232.4 -98.5 230.5C-151.6 228.5 -205.7 189.3 -232.8 137C-259.9 84.7 -259.9 19.4 -246.4 -41.1C-232.9 -101.5 -205.8 -157.3 -162.5 -193.9C-119.1 -230.6 -59.6 -248.3 -13.5 -232.2C32.6 -216.1 65.1 -166.3 89.8 -126.3" fill="#BB004B"></path></g></svg>